#!OML:ASF E:/inclinewalkrobotboard/Project1/Captureday1/Session1/subject1.ASF
:FULLY-SPECIFIED
:DEGREES
276
root 0 0 0 1.9931068634583198 -10.957213114446755 1.0667878115972478
lowerback -0.34023000566760575 -1.7863721339354304 -2.7867403544593876
upperback -0.4723366626330973 -2.35152005891651 1.8495454410070775
thorax -0.08755390396670926 -1.1645723536799926 3.418654069205251
lowerneck -26.51885534361221 -1.8523945605612167 -7.902802245177126
upperneck 25.37539709431518 0.0765825418546131 2.4805851101253373
head 12.906744197090124 -0.5428610978366857 2.366132858592864
rclavicle 3.8668214958978875E-15 -1.7418595237425206E-15
rhumerus -34.007722543067594 -2.925966250250333 -77.9478946032308
rradius 28.44276956528807
rwrist 20.371849022036848
rhand -17.749257425238877 9.023274928836264
rfingers 7.125019999999936
rthumb 8.508423837774178 -20.76811031611981
lclavicle 2.8464784709818663E-15 4.585291849450547E-16
lhumerus -20.371772219835986 -9.874121936635348 91.06485852197503
lradius 67.27350564309936
lwrist 3.599118627509404
lhand -28.639874675739744 22.956906666442027
lfingers 7.125020000000017
lthumb -2.028373075531202 53.019290609079164
rfemur -33.679777756958906 5.311078293498463 18.262431786082935
rtibia 20.784867928843525
rfoot -7.293146119522753 -13.26613500089051
rtoes -3.818542026935293
lfemur 22.02166980542197 -3.6976161451412937 -29.392986597640437
ltibia 24.789473632573042
lfoot -10.416102076737655 -8.902326141988262
ltoes -13.657192771492213
277
root 0 0 0 1.9480210971335918 -10.889289080979456 1.0681360593980014
lowerback -0.19573078931921706 -1.755994642682542 -2.7240999567882564
upperback -0.5050601464622294 -2.3135487382084268 1.9727993543731563
thorax -0.20063387529940768 -1.144010945124691 3.5117647467371036
lowerneck -26.921725446090523 -1.8472029071856213 -7.720326917770537
upperneck 24.47059958527126 0.11444650815942559 2.4399256103469877
head 12.671818322202343 -0.5158337962407815 2.325282567427694
rclavicle 2.8107640433895878E-15 -2.1297604840005464E-15
rhumerus -34.05668437309851 -2.4930638784920878 -77.72259589881942
rradius 28.31954946732743
rwrist 20.36504246814434
rhand -17.819021968924243 9.046881254839418
rfingers 7.125019999999938
rthumb 8.441025732641485 -20.751402346009385
lclavicle 1.7523919418681704E-15 2.3004092614984574E-16
lhumerus -20.184727298665372 -10.288858817020625 90.85755967293647
lradius 67.45440864334952
lwrist 3.8296928479200942
lhand -28.546352618736364 23.160292239412385
lfingers 7.1250200000000135
lthumb -1.941783274565413 53.23125066445255
rfemur -35.05527334821162 5.841802671970974 19.533821172120422
rtibia 17.57131596959134
rfoot -6.288418304588685 -12.029414401074387
rtoes -1.6487790546331844
lfemur 18.783345424650335 -3.258618119327608 -24.851119499527208
ltibia 34.62669714427366
lfoot -2.316433542898694 -13.654113488877123
ltoes -18.11505910977715
278
root 0 0 0 1.8796960032983188 -10.812613264147066 0.9906831461760149
lowerback -0.032088384512900525 -1.6997183279639008 -2.6186997478352865
upperback -0.5388225801082676 -2.2383416756839187 2.069254063178106
thorax -0.3308468201881327 -1.1053922490249433 3.5526327158964612
lowerneck -26.580277373485632 -1.7297579664911773 -7.550316351636895
upperneck 24.801020641388796 0.29156626436295985 2.2122738621715565
head 12.755242075541979 -0.48649296067466063 2.258286528665458
rclavicle 1.6180861064427271E-15 -2.481220945128651E-15
rhumerus -34.06576533706332 -2.5774738755835007 -77.68233233410216
rradius 28.268545653998896
rwrist 20.38229024705331
rhand -17.775353279965906 9.060571053774606
rfingers 7.125019999999936
rthumb 8.483102366062345 -20.73377607413621
lclavicle 4.721970592766737E-16 -6.833997524354596E-17
lhumerus -20.33841017081121 -9.55587284375369 90.76261473300343
lradius 67.09620869129675
lwrist 3.758269117161231
lhand -28.3784459789481 22.859972778329986
lfingers 7.125020000000013
lthumb -1.7833881816658108 52.933261113147424
rfemur -31.37646340410027 6.9302759635929885 25.087926115606344
rtibia 14.26107985121771
rfoot -3.0885513386043435 -9.365000686399872
rtoes 4.438381847171279
lfemur 8.662198678378452 -2.0920000080755283 -19.972423696465192
ltibia 41.97474324149677
lfoot 6.768516376607035 -15.892099315366185
ltoes -16.01611734891094
279
root 0 0 0 1.7907793415491526 -10.798492391361624 0.8685638331702976
lowerback 0.0640865994795119 -1.6415906649629468 -2.504059364570697
upperback -0.5832974391444534 -2.158897961366961 2.0758573728112713
thorax -0.4385224350883178 -1.064554509046303 3.4946931545547177
lowerneck -25.714390740838382 -1.5733882450040828 -7.432178866777386
upperneck 26.35831438695347 0.5233946483605922 1.823907352809207
head 13.194773941707972 -0.48485095995581073 2.1660010901582294
rclavicle 1.064548436281001E-15 -2.7691392542897696E-15
rhumerus -34.045411544280896 -3.1976275399830474 -77.85452223248488
rradius 28.315411828413012
rwrist 20.450153592413034
rhand -17.623179426723638 9.036405957225979
rfingers 7.125019999999934
rthumb 8.629442436718701 -20.74530295566967
lclavicle 6.746124902315497E-16 -6.205964586631557E-16
lhumerus -21.073353057737503 -7.7580926805073105 91.03394663807211
lradius 66.32384787040453
lwrist 3.1334225748396185
lhand -28.361655702541498 22.103272718313388
lfingers 7.125020000000018
lthumb -1.7626597902845518 52.15948981075071
rfemur -21.67566645338851 7.281481348489052 32.613886935507566
rtibia 19.348345784199232
rfoot -3.814043903466821 -7.136194269343234
rtoes 10.995123759907697
lfemur -2.4801938147718117 -1.0217238979005203 -17.201325897782244
ltibia 49.40480066198802
lfoot 11.330616448871655 -14.48080369699517
ltoes -8.498227670350495
280
root 0 0 0 1.7211505091330852 -10.801138292040601 0.7843073017734453
lowerback 0.09851638196809698 -1.6005758560609868 -2.4486485689523994
upperback -0.6208915889532367 -2.1027646618668414 2.02145628058901
thorax -0.5013663029637709 -1.0347729686033615 3.4080658155956307
lowerneck -25.038628821539067 -1.502590498948277 -7.391343713984083
upperneck 27.71530773951404 0.6188415475355452 1.5776065682170326
head 13.574981112794923 -0.5125541521121658 2.1089203224745514
rclavicle -1.3398329309721583E-16 -2.2560799067087688E-15
rhumerus -33.940810701213195 -3.939773689982574 -78.23769303923531
rradius 28.53913304840094
rwrist 20.482501587368787
rhand -17.46802834084771 8.971620228416999
rfingers 7.125019999999933
rthumb 8.778583218962261 -20.805048464094455
lclavicle 6.341467061312363E-17 -1.0962342659660395E-15
lhumerus -21.691084707153042 -6.1887254807116445 91.46314550264401
lradius 65.60546043106943
lwrist 2.434039016806015
lhand -28.54978843938838 21.434971106463735
lfingers 7.125020000000024
lthumb -1.932065656255494 51.46304046744995
rfemur -14.361502692201233 7.105455649521246 36.09591132326109
rtibia 26.216074734582843
rfoot -8.93851799605587 -6.189288420062235
rtoes 14.421173767720191
lfemur -6.514535713655924 -0.07356837148899542 -15.906453737103671
ltibia 52.38634739853936
lfoot 9.745620449209053 -12.855761239543519
ltoes -8.7163003055233
281
root 0 0 0 1.698541530306709 -10.791839647784661 0.7536887558952637
lowerback 0.10000768819159256 -1.5803998574818032 -2.444565560916584
upperback -0.6382181123736459 -2.0754154071461564 1.987433284872963
thorax -0.5224282723310126 -1.0200098385030294 3.3718295861464407
lowerneck -24.721691973527502 -1.485378430305028 -7.405482462531284
upperneck 28.27192430743871 0.6291922175123719 1.5255486477884526
head 13.717170682849577 -0.5294208923954803 2.102073794901027
rclavicle -2.4779618771130537E-15 -9.44930316575006E-16
rhumerus -33.75052581558849 -4.537773612481059 -78.78735257938953
rradius 28.926074934378388
rwrist 20.495713962852882
rhand -17.355516379343307 8.847538187023963
rfingers 7.125019999999937
rthumb 8.887612414995214 -20.936204839617815
lclavicle -1.5585511755655E-15 -7.925469107907018E-16
lhumerus -21.99171243812662 -5.78897193146419 91.81014844091834
lradius 65.26067459214951
lwrist 2.0650500185396514
lhand -28.76219921179557 21.025764837471893
lfingers 7.125020000000026
lthumb -2.131941390707322 51.03457514308006
rfemur -8.515102318352012 7.491700571463675 37.62435554399873
rtibia 27.30392121258302
rfoot -14.186046972029132 -6.312816905512488
rtoes 14.685630415305777
lfemur -14.091594874813374 1.3894926505437324 -14.350403969090873
ltibia 55.10532876519959
lfoot 4.5207439703225845 -9.059802330920391
ltoes -8.90855006310019
282
root 0 0 0 1.6987696833659012 -10.776823992320658 0.7423383983657528
lowerback 0.08384162728754196 -1.566399068260993 -2.461546339178201
upperback -0.6493142140685432 -2.0552852777229305 1.9622573612939291
thorax -0.526811007818312 -1.0093164719221839 3.355996442626951
lowerneck -24.522341918545255 -1.4890059104539777 -7.445940261919527
upperneck 28.52789755700483 0.6046219822447206 1.5548152323435938
head 13.767849101491745 -0.5433836917402017 2.117694627655443
rclavicle -3.785883999045295E-15 1.4496999307356436E-16
rhumerus -33.397928921537435 -4.875216293245515 -79.52829066811609
rradius 29.473565177027623
rwrist 20.384752646578537
rhand -17.31759606119705 8.744134739672903
rfingers 7.125019999999942
rthumb 8.925221333186677 -21.05506057946468
lclavicle -1.626607298587317E-15 -1.0018169350739118E-16
lhumerus -22.03359321850009 -5.6796662016640145 92.0044510024667
lradius 65.12282140039869
lwrist 1.8519182178850033
lhand -28.94142259403566 20.890840683108603
lfingers 7.125020000000025
lthumb -2.305716314770711 50.88733645258314
rfemur -2.564501473664544 8.077642915045347 38.53259591523792
rtibia 25.781715079332518
rfoot -19.277866594778782 -7.238321891271415
rtoes 12.606668875874522
lfemur -20.514446168457408 2.705318636964328 -13.808201391294002
ltibia 56.85225808035443
lfoot -0.6023640406887409 -5.6139853271860725
ltoes -7.483092588113779
283
root 0 0 0 1.7075325870309814 -10.747977796170225 0.7465635582963812
lowerback 0.06248138361522937 -1.5522702123710084 -2.491165090817551
upperback -0.6604252105949945 -2.0355825563144627 1.9406194462430044
thorax -0.5280393883038047 -0.9983606381435683 3.350914912213967
lowerneck -24.43448000945344 -1.5198630283831291 -7.49570131917666
upperneck 28.547345862572087 0.5344810651765327 1.6511816999840647
head 13.747154894743352 -0.5627992370663608 2.1482711330326256
rclavicle -2.7729772976390107E-15 8.643357332667827E-16
rhumerus -32.711903771794866 -4.504979448934847 -80.49234834687432
rradius 30.222639202578524
rwrist 19.966748939026534
rhand -17.437649229993532 8.763311445496386
rfingers 7.1250199999999415
rthumb 8.810301909081348 -21.05540806463691
lclavicle -4.960802302707599E-16 5.170380047885597E-16
lhumerus -21.793886160761474 -5.325063866241518 91.99870701223871
lradius 64.98656824050482
lwrist 1.7057777364760045
lhand -29.04990990528576 20.856436653995207
lfingers 7.125020000000025
lthumb -2.410589973554945 50.84349268595758
rfemur 1.3195207447777921 8.598217844981336 38.70456931978074
rtibia 23.213462362020167
rfoot -22.327794569503148 -8.335814561190817
rtoes 9.24240680559624
lfemur -23.548059517139727 2.87693510759769 -13.375363312867814
ltibia 55.36278414595384
lfoot -3.1895483837158745 -3.6966409878814384
ltoes -6.630566672138947
